<?xml version="1.0" encoding="utf-8"?>
<!-- Generator: Adobe Illustrator 24.1.3, SVG Export Plug-In . SVG Version: 6.00 Build 0)  -->
<svg version="1.1" id="OBJECTS" xmlns="http://www.w3.org/2000/svg" xmlns:xlink="http://www.w3.org/1999/xlink" x="0px" y="0px"
	 viewBox="0 0 500 352" style="enable-background:new 0 0 500 352;" xml:space="preserve">
<style type="text/css">
	.st0{opacity:0.22;}
	.st1{fill:#A2DBF1;}
	.st2{opacity:0.3;}
	.st3{fill:#222221;}
	.st4{fill:#B3B3B3;}
	.st5{fill:#3E3E3D;}
	.st6{fill:#6F6F6F;}
	.st7{fill:#FFFFFF;}
	.st8{fill:none;stroke:#425973;stroke-width:2.8141;stroke-linecap:round;stroke-linejoin:round;stroke-miterlimit:10;}
	.st9{fill:#DD9AB2;}
	.st10{fill:#D6819F;}
	.st11{fill:none;stroke:#425973;stroke-width:2.3451;stroke-linecap:round;stroke-linejoin:round;stroke-miterlimit:10;}
	.st12{fill:#E9C2D0;}
	.st13{fill:#DB9022;}
</style>
<g>
	<g>
		<g class="st0">
			<path class="st1" d="M267.92,106.77c-33.38,10.66-139.09-41.89-130.82,29.88c1.29,10.67,8.17,25.75,2.36,35.71
				c-4.21,7.46-11.92,11.83-19.36,14.73c-19.45,7.91-26.7,22.75-21.77,43.94c13.18,57.09,84.92,43.55,122.58,26.62
				c26.78-12.6,58.37-14.76,86.1-4.1c21.73,8.68,35.27,26.88,60.77,21.55c22.62-4.54,26.03-25.89,19.42-45.77
				c-3.75-12.3-6.45-17.49,1-29.36c6.27-11.79,17.31-20.72,18.16-34.53c0.19-14.96-6.69-30.03-19.99-35.7
				c-10.88-4.64-20.75-2.76-31.51-5.61c-23.95-6.73-39.34-43.94-69.05-31.14c-7.41,3.5-11.58,11.55-19.65,13.9"/>
		</g>
		<g class="st2">
			<g>
				<g>
					<path class="st1" d="M255.82,101.64c3.02,0,3.02-4.69,0-4.69C252.8,96.95,252.8,101.64,255.82,101.64L255.82,101.64z"/>
				</g>
			</g>
			<g>
				<g>
					<path class="st1" d="M116.87,173.75c2.45,0,4.8-2.16,4.69-4.69c-0.11-2.54-2.06-4.69-4.69-4.69c-2.45,0-4.8,2.16-4.69,4.69
						C112.3,171.6,114.25,173.75,116.87,173.75L116.87,173.75z"/>
				</g>
			</g>
			<g>
				<g>
					<path class="st1" d="M398.87,211.16c2.45,0,4.8-2.16,4.69-4.69c-0.11-2.54-2.06-4.69-4.69-4.69c-2.45,0-4.8,2.16-4.69,4.69
						C394.29,209.01,396.24,211.16,398.87,211.16L398.87,211.16z"/>
				</g>
			</g>
			<g>
				<g>
					<path class="st1" d="M239.99,99.3c2.45,0,4.8-2.16,4.69-4.69c-0.11-2.54-2.06-4.69-4.69-4.69c-2.45,0-4.8,2.16-4.69,4.69
						C235.41,97.15,237.36,99.3,239.99,99.3L239.99,99.3z"/>
				</g>
			</g>
			<g>
				<g>
					<path class="st1" d="M408.25,196.27c3.19,0,6.24-2.8,6.1-6.1c-0.15-3.3-2.68-6.1-6.1-6.1c-3.19,0-6.24,2.8-6.1,6.1
						C402.3,193.47,404.83,196.27,408.25,196.27L408.25,196.27z"/>
				</g>
			</g>
			<g>
				<g>
					<path class="st1" d="M101.05,189.23c3.19,0,6.24-2.8,6.1-6.1c-0.15-3.3-2.68-6.1-6.1-6.1c-3.19,0-6.24,2.8-6.1,6.1
						C95.1,186.44,97.63,189.23,101.05,189.23L101.05,189.23z"/>
				</g>
			</g>
			<g>
				<g>
					<path class="st1" d="M361.35,115.95c3.19,0,6.24-2.8,6.1-6.1c-0.15-3.3-2.68-6.1-6.1-6.1c-3.19,0-6.24,2.8-6.1,6.1
						C355.4,113.15,357.93,115.95,361.35,115.95L361.35,115.95z"/>
				</g>
			</g>
			<g>
				<g>
					<path class="st1" d="M253.47,91.68c3.68,0,7.21-3.24,7.04-7.04c-0.17-3.81-3.09-7.04-7.04-7.04c-3.68,0-7.21,3.24-7.04,7.04
						C246.61,88.45,249.53,91.68,253.47,91.68L253.47,91.68z"/>
				</g>
			</g>
			<g>
				<g>
					<path class="st1" d="M413.29,207.29c1.9,0,3.52-1.62,3.52-3.52c0-1.91-1.61-3.52-3.52-3.52c-1.9,0-3.52,1.62-3.52,3.52
						C409.77,205.68,411.38,207.29,413.29,207.29L413.29,207.29z"/>
				</g>
			</g>
			<g>
				<g>
					<path class="st1" d="M99.4,169.65c1.9,0,3.52-1.62,3.52-3.52c0-1.91-1.61-3.52-3.52-3.52c-1.9,0-3.52,1.62-3.52,3.52
						C95.89,168.04,97.5,169.65,99.4,169.65L99.4,169.65z"/>
				</g>
			</g>
			<g>
				<g>
					<path class="st1" d="M376,122.75c1.9,0,3.52-1.62,3.52-3.52c0-1.91-1.61-3.52-3.52-3.52c-1.9,0-3.52,1.62-3.52,3.52
						C372.49,121.14,374.1,122.75,376,122.75L376,122.75z"/>
				</g>
			</g>
			<g>
				<g>
					<path class="st1" d="M374.83,109.85c3.02,0,3.02-4.69,0-4.69C371.81,105.16,371.81,109.85,374.83,109.85L374.83,109.85z"/>
				</g>
			</g>
			<g>
				<g>
					<path class="st1" d="M137.28,101.76c2.45,0,4.8-2.16,4.69-4.69c-0.11-2.54-2.06-4.69-4.69-4.69c-2.45,0-4.8,2.16-4.69,4.69
						C132.7,99.61,134.65,101.76,137.28,101.76L137.28,101.76z"/>
				</g>
			</g>
			<g>
				<g>
					<path class="st1" d="M404.15,263.45c2.45,0,4.8-2.16,4.69-4.69c-0.11-2.54-2.06-4.69-4.69-4.69c-2.45,0-4.8,2.16-4.69,4.69
						C399.57,261.3,401.52,263.45,404.15,263.45L404.15,263.45z"/>
				</g>
			</g>
			<g>
				<g>
					<path class="st1" d="M99.29,267.56c2.45,0,4.8-2.16,4.69-4.69c-0.11-2.54-2.06-4.69-4.69-4.69c-2.45,0-4.8,2.16-4.69,4.69
						C94.71,265.41,96.66,267.56,99.29,267.56L99.29,267.56z"/>
				</g>
			</g>
			<g>
				<g>
					<path class="st1" d="M151.35,94.72c3.02,0,3.02-4.69,0-4.69C148.33,90.03,148.33,94.72,151.35,94.72L151.35,94.72z"/>
				</g>
			</g>
			<g>
				<g>
					<path class="st1" d="M404.73,244.69c3.02,0,3.02-4.69,0-4.69C401.71,240,401.71,244.69,404.73,244.69L404.73,244.69z"/>
				</g>
			</g>
			<g>
				<g>
					<path class="st1" d="M113.36,273.42c3.02,0,3.02-4.69,0-4.69C110.34,268.73,110.33,273.42,113.36,273.42L113.36,273.42z"/>
				</g>
			</g>
		</g>
	</g>
	<g>
		<g>
			<g>
				<g>
					<g>
						<g>
							<path class="st3" d="M180.31,194.45c-1.12,0.42-2.31,0.86-3.53,0.89c-0.76,0.02-1.4-0.16-1.8-0.48
								c-1.24-1-1.88-3.02-2.54-4.57c-0.9-2.13-1.9-4.13-3.36-5.94c-1.53-1.88-3.43-3.79-5.93-4.17c-2.12-0.32-4.22,0.41-6.32,0.56
								c-2.66,0.19-5.56-0.3-8.09-1.15c-0.82-0.28-1.61-0.64-2.32-1.13c-0.43-0.3-1.07-0.96-1.3-1.32c-0.44-0.71-0.5-0.86-0.71-1.61
								c-0.17-0.6-0.33-1.53-0.36-1.85c-0.51-4.4-0.57-8.59-2.56-12.66c-1-2.03-4.03-0.25-3.04,1.78c1.7,3.47,1.65,7.05,2.07,10.79
								c0.4,3.62,1.73,6.78,5.15,8.51c2.4,1.22,5.07,1.69,7.72,2.01c2.72,0.32,5.26-0.18,7.85-0.46c2.18-0.23,3.53,1.04,5.02,2.79
								c1.47,1.73,2.39,3.82,3.26,5.9c0.88,2.08,1.79,4.35,3.78,5.62c2.41,1.53,5.45,0.82,7.94-0.12
								C183.34,197.05,182.43,193.65,180.31,194.45L180.31,194.45z"/>
						</g>
					</g>
					<g>
						<g>
							<g>
								<path class="st3" d="M143.14,156.28c-0.05,0.06-0.09,0.12-0.14,0.18c0.07-0.09,0.15-0.19,0.22-0.28
									c-0.55,0.71-1.15,1.36-1.85,1.91c0.09-0.07,0.19-0.15,0.28-0.22c-0.74,0.57-1.56,1.01-2.39,1.42
									c-0.66,0.33-0.9,1.31-0.5,1.93c0.43,0.67,1.22,0.86,1.93,0.5c0.89-0.45,1.74-0.93,2.53-1.53c0.92-0.71,1.66-1.56,2.35-2.49
									c0.2-0.27,0.23-0.77,0.14-1.08c-0.09-0.33-0.34-0.68-0.65-0.84c-0.33-0.17-0.72-0.26-1.08-0.14
									C143.61,155.75,143.37,155.97,143.14,156.28L143.14,156.28z"/>
							</g>
						</g>
						<g>
							<g>
								<path class="st3" d="M138.1,152.53c-0.02,2.97,0.46,5.93,0.47,8.91c0,0.74,0.65,1.44,1.41,1.41
									c0.76-0.03,1.41-0.62,1.41-1.41c-0.01-2.98-0.49-5.94-0.47-8.91c0.01-0.74-0.65-1.44-1.41-1.41
									C138.74,151.16,138.1,151.74,138.1,152.53L138.1,152.53z"/>
							</g>
						</g>
						<g>
							<g>
								<path class="st3" d="M133.35,155.4c1.87,2.34,3.78,4.74,6.38,6.32c0.63,0.38,1.57,0.16,1.93-0.5
									c0.36-0.68,0.17-1.52-0.5-1.93c-0.29-0.17-0.57-0.36-0.84-0.55c-0.03-0.02-0.2-0.18-0.24-0.18c0.06,0,0.2,0.16,0.04,0.03
									c-0.13-0.11-0.26-0.22-0.39-0.33c-0.54-0.46-1.05-0.97-1.54-1.49c-1.01-1.07-1.92-2.22-2.84-3.36
									c-0.46-0.58-1.51-0.52-1.99,0C132.79,154.02,132.86,154.79,133.35,155.4L133.35,155.4z"/>
							</g>
						</g>
						<g>
							<g>
								<path class="st3" d="M131.01,159.62c1.22,1.21,2.74,2.16,4.43,2.53c1.63,0.36,3.32,0.22,4.91-0.29
									c0.7-0.23,1.22-0.98,0.98-1.73c-0.23-0.7-0.98-1.23-1.73-0.98c-0.32,0.1-0.65,0.2-0.98,0.27c-0.16,0.03-0.33,0.06-0.49,0.09
									c0.13-0.02,0.16-0.02,0.01,0c-0.08,0.01-0.16,0.02-0.24,0.02c-0.32,0.02-0.64,0.03-0.96,0.01
									c-0.16-0.01-0.32-0.02-0.48-0.04c0.13,0.01,0.17,0.03,0.02,0c-0.1-0.02-0.2-0.04-0.29-0.06c-0.32-0.07-0.63-0.16-0.93-0.27
									c-0.03-0.01-0.26-0.1-0.12-0.04c0.15,0.06-0.09-0.04-0.12-0.05c-0.15-0.07-0.3-0.15-0.45-0.23c-0.3-0.17-0.6-0.36-0.87-0.57
									c-0.18-0.14,0.14,0.12-0.03-0.03c-0.07-0.06-0.14-0.12-0.21-0.18c-0.16-0.14-0.31-0.29-0.46-0.43
									c-0.52-0.52-1.47-0.56-1.99,0C130.49,158.19,130.45,159.07,131.01,159.62L131.01,159.62z"/>
							</g>
						</g>
					</g>
				</g>
				<g>
					<g>
						<g>
							<path class="st3" d="M324.18,203.18c0.01-1.29,0.06-2.62,0.51-3.85c0.26-0.71,0.68-1.28,1.14-1.6c1.42-0.99,3.68-1,5.49-1.12
								c2.44-0.15,4.96-0.14,7.37-0.61c1.5-0.29,2.77-1.06,3.47-2.45c1.76-3.48,1.59-7.83,5.26-10.07
								c3.14-1.91,7.16-1.84,10.68-2.85c1.98-0.57,3.94-1.5,5.3-3.1c1.83-2.15,2.41-4.91,2.51-7.67c0.09-2.26-3.43-2.26-3.52,0
								c-0.08,1.93-0.47,4.14-1.75,5.48c-1.1,1.15-2.54,1.68-4.19,2.08c-3.73,0.92-7.78,1.02-11.1,3.19
								c-1.87,1.22-3.3,2.94-4.19,4.98c-0.87,1.99-1.29,4.12-2.05,6.14c-0.04,0.11,0.12-0.21-0.04,0.09
								c-0.06,0.11-0.12,0.22-0.18,0.33c-0.2,0.35,0.14-0.16-0.04,0.05c-0.23,0.26-0.03,0.04-0.05,0.05
								c-0.06,0.04-0.39,0.19-0.18,0.11c0.22-0.08-0.18,0.06-0.25,0.08c-0.34,0.08-0.82,0.19-1.08,0.22
								c-2.36,0.32-5.02,0.31-7.49,0.51c-2.32,0.19-4.78,0.51-6.6,2.12c-2.19,1.94-2.54,5.11-2.57,7.86
								C320.64,205.45,324.16,205.45,324.18,203.18L324.18,203.18z"/>
						</g>
					</g>
					<g>
						<g>
							<g>
								<path class="st3" d="M357.65,165.57c0.56,1.39,1.35,2.66,2.41,3.73c1.07,1.07,2.33,1.85,3.73,2.41
									c0.32,0.13,0.8,0.02,1.08-0.14c0.29-0.17,0.57-0.51,0.65-0.84c0.08-0.36,0.06-0.76-0.14-1.08c-0.21-0.33-0.48-0.5-0.84-0.65
									c-0.26-0.1,0.28,0.13,0.05,0.02c-0.07-0.03-0.14-0.06-0.21-0.1c-0.14-0.07-0.28-0.14-0.42-0.21
									c-0.25-0.13-0.49-0.28-0.73-0.43c-0.13-0.08-0.26-0.17-0.38-0.26c-0.07-0.05-0.29-0.24,0.04,0.03
									c-0.06-0.05-0.12-0.1-0.18-0.14c-0.23-0.19-0.45-0.39-0.65-0.6c-0.21-0.21-0.41-0.43-0.6-0.65
									c-0.05-0.06-0.09-0.12-0.14-0.18c0.04,0.05,0.08,0.11,0.13,0.16c-0.03-0.04-0.06-0.08-0.09-0.12
									c-0.08-0.11-0.16-0.23-0.24-0.35c-0.16-0.25-0.32-0.5-0.46-0.76c-0.07-0.14-0.14-0.28-0.21-0.42
									c-0.03-0.06-0.05-0.12-0.08-0.18c-0.14-0.31,0.11,0.27,0.01,0.01c-0.14-0.35-0.3-0.64-0.65-0.84
									c-0.3-0.18-0.75-0.25-1.08-0.14c-0.34,0.11-0.67,0.32-0.84,0.65C357.62,164.8,357.51,165.22,357.65,165.57L357.65,165.57z"
									/>
							</g>
						</g>
						<g>
							<g>
								<path class="st3" d="M361.82,161.91c0,2.35,0,4.69,0,7.04c0,0.74,0.65,1.44,1.41,1.41c0.76-0.03,1.41-0.62,1.41-1.41
									c0-2.35,0-4.69,0-7.04c0-0.74-0.65-1.44-1.41-1.41C362.46,160.54,361.82,161.12,361.82,161.91L361.82,161.91z"/>
							</g>
						</g>
						<g>
							<g>
								<path class="st3" d="M366.56,162.47c-0.11,0.33-0.23,0.65-0.36,0.97c-0.13,0.32,0.13-0.28-0.01,0.03
									c-0.03,0.07-0.07,0.15-0.1,0.22c-0.07,0.15-0.14,0.29-0.21,0.44c-0.29,0.57-0.62,1.12-1,1.64
									c-0.05,0.06-0.09,0.12-0.14,0.19c-0.11,0.15,0.22-0.27,0.02-0.03c-0.1,0.12-0.2,0.24-0.3,0.36
									c-0.21,0.24-0.42,0.48-0.65,0.7c-0.5,0.51-1.04,0.98-1.59,1.42c-0.58,0.46-0.52,1.51,0,1.99c0.61,0.56,1.38,0.49,1.99,0
									c1.17-0.94,2.21-2,3.09-3.22c0.87-1.2,1.49-2.57,1.96-3.97c0.23-0.7-0.27-1.57-0.98-1.73
									C367.51,161.31,366.81,161.73,366.56,162.47L366.56,162.47z"/>
							</g>
						</g>
						<g>
							<g>
								<path class="st3" d="M369.98,165.42c-0.09,0.14-0.17,0.28-0.27,0.42c-0.05,0.07-0.09,0.13-0.14,0.2
									c-0.05,0.06-0.18,0.28,0.01-0.01c-0.17,0.26-0.42,0.5-0.64,0.73c-0.21,0.22-0.43,0.43-0.66,0.63
									c-0.12,0.1-0.24,0.2-0.37,0.3c-0.14,0.12,0.28-0.2,0.02-0.02c-0.06,0.05-0.13,0.09-0.19,0.14c-0.5,0.36-1.03,0.68-1.58,0.97
									c-0.28,0.15-0.56,0.29-0.84,0.42c-0.13,0.06-0.26,0.12-0.38,0.17c-0.22,0.1-0.03,0.06,0.04-0.01
									c-0.04,0.05-0.2,0.08-0.26,0.1c-0.35,0.14-0.64,0.31-0.84,0.65c-0.18,0.3-0.25,0.75-0.14,1.08c0.21,0.66,1,1.28,1.73,0.98
									c2.77-1.12,5.35-2.73,6.94-5.34c0.38-0.63,0.16-1.57-0.5-1.93C371.22,164.56,370.39,164.75,369.98,165.42L369.98,165.42z"/>
							</g>
						</g>
					</g>
				</g>
			</g>
			<g>
				<g>
					<g>
						<path class="st4" d="M340.95,254.15c0,2.46-18.42,3.18-20.41,3.18H182.66c-1.99,0-20.41-0.71-20.41-3.18l16.81-25.2
							c0-2.46,1.61-4.46,3.6-4.46h137.87c1.99,0,3.6,1.99,3.6,4.46L340.95,254.15z"/>
						<g>
							<g>
								<polygon class="st5" points="223.25,248.54 187.81,248.54 194.01,233.53 226.06,233.53 								"/>
								<polygon class="st5" points="279.95,248.54 315.39,248.54 309.18,233.53 277.14,233.53 								"/>
								<polygon class="st5" points="319.32,248.54 331.8,248.54 321.59,233.53 312.18,233.53 								"/>
								<polygon class="st5" points="183.88,248.54 171.4,248.54 181.61,233.53 191.02,233.53 								"/>
								<polygon class="st5" points="276.83,248.54 226.36,248.54 229.18,233.53 274.02,233.53 								"/>
							</g>
							<g>
								<rect x="174.48" y="236.27" class="st4" width="154.24" height="2.3"/>
								<rect x="172.81" y="241.89" class="st4" width="157.59" height="2.3"/>
							</g>
						</g>
					</g>
					<g>
						<path class="st5" d="M341.89,259.99c0,1.99-0.41,3.6-2.4,3.6H163.71c-1.99,0-2.4-1.61-2.4-3.6v-3.09c0-1.99,0.41-3.6,2.4-3.6
							h175.78c1.99,0,2.4,1.61,2.4,3.6V259.99z"/>
						<path class="st6" d="M284.55,258.53c0,1.04-0.84,1.88-1.88,1.88h-62.14c-1.04,0-1.88-0.84-1.88-1.88l0,0
							c0-1.04,0.84-1.88,1.88-1.88h62.14C283.71,256.65,284.55,257.49,284.55,258.53L284.55,258.53z"/>
					</g>
				</g>
				<g>
					<path class="st5" d="M325.94,225.55c0,1.99-1.61,3.6-3.6,3.6H180.86c-1.99,0-3.6-1.61-3.6-3.6v-92.3c0-1.99,1.61-3.6,3.6-3.6
						h141.47c1.99,0,3.6,1.61,3.6,3.6V225.55z"/>
					<g>
						<g>
							<path class="st7" d="M251.6,134.66c1.93,0,1.93-3,0-3C249.67,131.66,249.66,134.66,251.6,134.66L251.6,134.66z"/>
						</g>
					</g>
					<g>
						<path class="st7" d="M315.53,219.75c0,1.71-1.39,3.1-3.1,3.1H190.77c-1.71,0-3.1-1.39-3.1-3.1v-79.37c0-1.71,1.39-3.1,3.1-3.1
							h121.67c1.71,0,3.1,1.39,3.1,3.1V219.75z"/>
						<g>
							<g>
								<g>
									<line class="st8" x1="232.99" y1="169.45" x2="222.37" y2="180.06"/>
									<line class="st8" x1="232.99" y1="180.06" x2="222.37" y2="169.45"/>
								</g>
								<g>
									<line class="st8" x1="280.83" y1="169.45" x2="270.21" y2="180.06"/>
									<line class="st8" x1="280.83" y1="180.06" x2="270.21" y2="169.45"/>
								</g>
							</g>
							<g>
								<g>
									<path class="st9" d="M276.06,192.87v10.47c0,2.07-1.68,3.75-3.75,3.75h-2.02c-2.07,0-3.75-1.68-3.75-3.75v-10.47"/>
									<g>
										<polygon class="st10" points="272.94,193.41 271.3,205.61 269.65,193.41 										"/>
									</g>
								</g>
								<line class="st11" x1="219.8" y1="192.85" x2="283.4" y2="192.85"/>
							</g>
							<g>
								<g>
									<g>
										<path class="st12" d="M209.39,191.3c2.45,0,4.8-2.16,4.69-4.69c-0.11-2.54-2.06-4.69-4.69-4.69
											c-2.45,0-4.8,2.16-4.69,4.69C204.81,189.15,206.76,191.3,209.39,191.3L209.39,191.3z"/>
									</g>
								</g>
								<g>
									<g>
										<path class="st12" d="M293.81,191.3c2.45,0,4.8-2.16,4.69-4.69c-0.11-2.54-2.06-4.69-4.69-4.69
											c-2.45,0-4.8,2.16-4.69,4.69C289.23,189.15,291.18,191.3,293.81,191.3L293.81,191.3z"/>
									</g>
								</g>
							</g>
						</g>
					</g>
				</g>
			</g>
		</g>
		<g>
			<g>
				<g>
					<path class="st13" d="M301.78,117.35c0,10.32,0,20.64,0,30.95c0,3.02,4.69,3.02,4.69,0c0-10.32,0-20.64,0-30.95
						C306.47,114.34,301.78,114.33,301.78,117.35L301.78,117.35z"/>
				</g>
			</g>
			<g>
				<g>
					<path class="st13" d="M304.13,160.27c1.9,0,3.52-1.62,3.52-3.52c0-1.91-1.61-3.52-3.52-3.52c-1.9,0-3.52,1.62-3.52,3.52
						C300.61,158.66,302.22,160.27,304.13,160.27L304.13,160.27z"/>
				</g>
			</g>
		</g>
	</g>
</g>
</svg>
