<?xml version="1.0" encoding="utf-8"?>
<!-- Generator: Adobe Illustrator 24.1.3, SVG Export Plug-In . SVG Version: 6.00 Build 0)  -->
<svg version="1.1" id="Capa_1" xmlns="http://www.w3.org/2000/svg" xmlns:xlink="http://www.w3.org/1999/xlink" x="0px" y="0px"
	 viewBox="0 0 1366 331" style="enable-background:new 0 0 1366 331;" xml:space="preserve">
<style type="text/css">
	.st0{fill:#FFFFFF;}
</style>
<g>
	<g>
		<g>
			<path class="st0" d="M299.41,116.59v117.94h-32.69l-44.82-53.58v53.58h-38.75V116.59h32.69l44.82,53.58v-53.58H299.41z"/>
			<path class="st0" d="M416.67,204.54v29.99h-98.06V116.59h95.87v29.99H357.7v13.82h49.87v28.64H357.7v15.5H416.67z"/>
			<path class="st0" d="M622.22,116.59l-37.74,117.94h-42.63l-19.04-63.02l-20.05,63.02h-42.63l-37.74-117.94h40.94l20.56,67.06
				l21.74-67.06h36.56l20.56,67.9l21.74-67.9H622.22z"/>
			<path class="st0" d="M623.56,225.1l12.81-28.98c11.12,6.57,25.95,10.78,38.92,10.78c11.29,0,15.33-2.36,15.33-6.4
				c0-14.83-65.21-2.86-65.21-46.84c0-21.9,18.37-39.76,54.93-39.76c15.84,0,32.18,3.37,44.48,10.28l-11.96,28.81
				c-11.63-5.9-22.58-8.76-32.86-8.76c-11.63,0-15.33,3.37-15.33,7.41c0,14.15,65.21,2.36,65.21,45.83
				c0,21.57-18.37,39.76-54.93,39.76C655.23,237.23,635.35,232.34,623.56,225.1z"/>
			<path class="st0" d="M842.75,204.88h-10.78v29.65h-39.76V116.59h56.78c32.85,0,53.75,17.19,53.75,44.48
				c0,17.02-8.09,29.82-22.24,37.07l24.77,36.39h-42.46L842.75,204.88z M846.46,147.26h-14.49v27.63h14.49
				c10.95,0,16.18-5.22,16.18-13.82C862.64,152.48,857.41,147.26,846.46,147.26z"/>
			<path class="st0" d="M1308.77,234.53l-0.34-53.75l-25.61,43.13h-17.52l-25.61-41.28v51.9h-36.23V116.59h32.69l38.42,62.85
				l37.4-62.85h32.69l0.34,117.94H1308.77z"/>
			<path class="st0" d="M1122.43,113.89c-38.42,0-66.55,25.95-66.55,61.67s28.14,61.67,66.55,61.67s66.55-25.95,66.55-61.67
				S1160.85,113.89,1122.43,113.89z"/>
		</g>
	</g>
	<rect x="37.7" y="116.64" class="st0" width="117.89" height="117.89"/>
	<path class="st0" d="M979.56,113.89c-38.42,0-66.55,25.95-66.55,61.67s28.14,61.67,66.55,61.67s66.55-25.95,66.55-61.67
		S1017.98,113.89,979.56,113.89z"/>
</g>
</svg>
