<?xml version="1.0" encoding="utf-8"?>
<!-- Generator: Adobe Illustrator 24.1.3, SVG Export Plug-In . SVG Version: 6.00 Build 0)  -->
<svg version="1.1" id="Capa_1" xmlns="http://www.w3.org/2000/svg" xmlns:xlink="http://www.w3.org/1999/xlink" x="0px" y="0px"
	 viewBox="0 0 310.42 310.42" style="enable-background:new 0 0 310.42 310.42;" xml:space="preserve">
<style type="text/css">
	.st0{fill:#FFFFFF;}
</style>
<g>
	<g>
		<path class="st0" d="M174.24,199.73c0,0,1.98-1.18,3.65,0.49c9.07,9.07,36.27,36.27,36.27,36.27c7.23,7.23,17.35,8.96,23.77,2.54
			l1.1-1.1c6.42-6.42,4.69-16.53-2.54-23.77c0,0-27.26-27.26-36.35-36.35c-1.59-1.59-0.41-3.57-0.41-3.57
			c16.42-27.37,12.85-62.42-10.72-85.98c-27.78-27.78-72.98-27.78-100.75,0c-27.78,27.78-27.78,72.98,0,100.76
			C111.82,212.58,146.87,216.14,174.24,199.73z M101.41,175.86c-20.53-20.53-20.53-53.92,0-74.45c20.52-20.53,53.92-20.52,74.45,0
			c20.53,20.53,20.53,53.92,0,74.45C155.33,196.38,121.93,196.38,101.41,175.86z"/>
		<g>
			<path class="st0" d="M164.53,129.91c-6.79-16.04-25.36-23.56-41.39-16.78c-3.74,1.58-8.05-0.17-9.64-3.91
				c-1.58-3.74,0.17-8.05,3.91-9.64c23.51-9.95,50.72,1.08,60.67,24.59c1.58,3.74-0.17,8.05-3.91,9.64
				c-0.94,0.4-1.91,0.58-2.86,0.58C168.44,134.4,165.72,132.72,164.53,129.91z"/>
		</g>
	</g>
</g>
</svg>
